<?xml version="1.0" encoding="iso-8859-1"?>
<!-- Generator: Adobe Illustrator 19.0.0, SVG Export Plug-In . SVG Version: 6.00 Build 0)  -->
<svg version="1.1" id="Layer_1" xmlns="http://www.w3.org/2000/svg" xmlns:xlink="http://www.w3.org/1999/xlink" x="0px" y="0px"
	 viewBox="0 0 373.01 373.01" style="enable-background:new 0 0 373.01 373.01;" xml:space="preserve">
<g id="XMLID_1626_">
	<g id="XMLID_1627_">
		<path id="XMLID_1628_" style="fill:#FF5959;" d="M346.618,194.477c0,2.843-1.157,5.408-3.013,7.274
			c-1.866,1.855-4.43,3.013-7.274,3.013H36.678c-2.644,0-5.059-0.998-6.875-2.644c-2.095-1.877-3.412-4.61-3.412-7.643
			c0-20.684,8.381-39.403,21.931-52.953s32.268-21.932,52.942-21.932h170.471c16.064,0,30.931,5.049,43.124,13.66
			c7.493,5.278,13.969,11.914,19.087,19.527C341.949,164.692,346.618,179.04,346.618,194.477z"/>
		<g id="XMLID_1629_">
			<path id="XMLID_1630_" style="fill:#FFFEB9;" d="M150.933,119.592l-85.171,85.171H36.678c-2.644,0-5.059-0.998-6.875-2.644
				l82.527-82.527C112.33,119.592,150.933,119.592,150.933,119.592z"/>
			<polygon id="XMLID_1631_" style="fill:#FFFEB9;" points="259.033,119.592 173.862,204.763 135.258,204.763 220.419,119.592 			
				"/>
			<path id="XMLID_1632_" style="fill:#FFFEB9;" d="M333.946,152.779l-51.984,51.984h-38.614l71.511-71.511
				C322.352,138.531,328.828,145.166,333.946,152.779z"/>
		</g>
	</g>
	<circle id="XMLID_1633_" style="fill:#FFE165;" cx="95.171" cy="181.075" r="28.667"/>
	<circle id="XMLID_1634_" style="fill:#FFE165;" cx="61.702" cy="193.98" r="28.667"/>
	<circle id="XMLID_1635_" style="fill:#FFA250;" cx="166.504" cy="187.675" r="14"/>
	<circle id="XMLID_1636_" style="fill:#FFA250;" cx="217.171" cy="187.675" r="14"/>
	<circle id="XMLID_1637_" style="fill:#FFA250;" cx="293.838" cy="187.675" r="14"/>
	<circle id="XMLID_1638_" style="fill:#FFA250;" cx="270.171" cy="193.98" r="14"/>
	<circle id="XMLID_1639_" style="fill:#FFA250;" cx="192.504" cy="193.98" r="14"/>
	<circle id="XMLID_1640_" style="fill:#FFA250;" cx="319.946" cy="195.742" r="14"/>
	<circle id="XMLID_1641_" style="fill:#FFA250;" cx="243.348" cy="190.763" r="14"/>
	<path id="XMLID_1642_" style="fill:#5FD2DB;" d="M341.949,253.418H31.06c-4.488,0-8.614-2.466-10.74-6.419l-18.849-35.05
		c-4.369-8.124,1.516-17.969,10.74-17.969h348.587c9.224,0,15.108,9.845,10.74,17.969L352.689,247
		C350.563,250.953,346.437,253.418,341.949,253.418z"/>
</g>
<g>
</g>
<g>
</g>
<g>
</g>
<g>
</g>
<g>
</g>
<g>
</g>
<g>
</g>
<g>
</g>
<g>
</g>
<g>
</g>
<g>
</g>
<g>
</g>
<g>
</g>
<g>
</g>
<g>
</g>
</svg>
